<?xml version="1.0" encoding="UTF-8"?>
<svg xmlns="http://www.w3.org/2000/svg" viewBox="0 0 64 64" role="img" aria-label="Anime Name Generator — あ">
  <rect width="64" height="64" rx="14" ry="14" fill="#ec4899"/>
  <rect x="2" y="2" width="60" height="60" rx="13" ry="13" fill="none" stroke="#f9a8d4" stroke-width="1" opacity="0.5"/>
  <g transform="translate(5.23 51.62) scale(0.0528 -0.0528)">
    <path d="M749 548 627 577C626 562 622 537 618 517H600C551 517 499 510 451 499L458 590C581 595 715 607 813 625L812 741C702 715 594 702 472 697L482 752C486 767 490 785 496 805L366 808C367 791 365 767 364 748L358 694H318C257 694 169 702 134 708L137 592C184 590 262 586 314 586H346C342 545 339 503 337 460C197 394 91 260 91 131C91 30 153 -14 226 -14C279 -14 332 2 381 26L394 -15L509 20C501 44 493 69 486 94C562 157 642 262 696 398C765 371 800 318 800 258C800 160 722 62 529 41L595 -64C841 -27 924 110 924 252C924 368 847 459 731 497ZM585 415C551 334 507 274 458 225C451 275 447 329 447 390V393C486 405 532 414 585 415ZM355 141C319 120 283 108 255 108C223 108 209 125 209 157C209 214 259 290 334 341C336 272 344 203 355 141Z" fill="#ffffff"/>
  </g>
</svg>
